<?xml version="1.0" encoding="utf-8"?>

<!DOCTYPE svg PUBLIC "-//W3C//DTD SVG 1.1//EN" "http://www.w3.org/Graphics/SVG/1.1/DTD/svg11.dtd">
<svg version="1.1" id="Food_Icons" xmlns="http://www.w3.org/2000/svg" xmlns:xlink="http://www.w3.org/1999/xlink" x="0px" y="0px"
	 width="51.686px" height="106.996px" viewBox="0 0 51.686 106.996" enable-background="new 0 0 51.686 106.996"
	 xml:space="preserve">
<g id="_x37_">
	<g>
		<g>
			<path fill="#E3ECE9" d="M49.782,48.781v49.912c0,3.536-2.862,6.398-6.387,6.398H8.292c-3.526,0-6.387-2.862-6.387-6.398V48.781
				c0-4.657,3.776-8.433,8.433-8.433h0.01c1.311,0,2.411-0.991,2.546-2.295l2.526-24.364h20.849l2.536,24.365
				c0.136,1.304,1.235,2.294,2.546,2.294h0C46.006,40.348,49.782,44.124,49.782,48.781z"/>
		</g>
	</g>
	<g>
		<g>
			<path fill="#E19E2C" d="M49.805,48.781v49.912c0,3.536-2.862,6.398-6.387,6.398H8.315c-3.526,0-6.387-2.862-6.387-6.398V48.781
				C10.716,57.569,41.274,40.25,49.805,48.781z"/>
		</g>
	</g>
	<g opacity="0.2">
		<g>
			<path fill="#E3ECE9" d="M43.344,48.781v49.912c0,3.536-2.862,6.398-6.387,6.398H8.292c-3.526,0-6.387-2.862-6.387-6.398V48.781
				c0-4.657,3.776-8.433,8.433-8.433l0,0c1.311,0,2.42-0.991,2.556-2.295l2.526-24.364h14.411l2.536,24.365
				c0.136,1.304,1.235,2.294,2.546,2.294h0C39.568,40.348,43.344,44.124,43.344,48.781z"/>
		</g>
	</g>
	<g>
		<g>
			<path d="M43.394,106.996H8.292C3.72,106.996,0,103.271,0,98.693V48.781c0-5.7,4.637-10.337,10.337-10.337
				c0.347,0,0.627-0.252,0.661-0.587l2.526-24.364c0.1-0.97,0.919-1.708,1.894-1.708h20.849c0.975,0,1.793,0.737,1.894,1.707
				l2.536,24.365c0.035,0.335,0.315,0.587,0.651,0.587c5.7,0,10.337,4.637,10.337,10.337v49.913
				C51.686,103.271,47.966,106.996,43.394,106.996z M17.136,15.593l-2.349,22.656c-0.236,2.282-2.145,4.003-4.44,4.003
				c-3.61,0-6.539,2.929-6.539,6.529v49.913c0,2.478,2.011,4.494,4.483,4.494h35.103c2.472,0,4.483-2.016,4.483-4.494V48.781
				c0-3.6-2.929-6.529-6.529-6.529c-2.294,0-4.203-1.72-4.44-4.002l-2.358-22.657H17.136z"/>
		</g>
	</g>
	<g>
		<g>
			<rect x="1.904" y="55.718" fill="#666766" width="47.878" height="34.004"/>
		</g>
		<g>
			<path d="M49.782,91.626H1.904C0.853,91.626,0,90.773,0,89.722V55.718c0-1.051,0.853-1.904,1.904-1.904h47.878
				c1.051,0,1.904,0.853,1.904,1.904v34.004C51.686,90.773,50.833,91.626,49.782,91.626z M3.808,87.817h44.069V57.622H3.808V87.817z
				"/>
		</g>
	</g>
	<g>
		<g>
			<path fill="#454545" d="M39.031,5.006v8.683H12.655V5.006c0-1.713,1.388-3.101,3.101-3.101H35.93
				C37.643,1.904,39.031,3.293,39.031,5.006z"/>
		</g>
		<g>
			<path d="M39.031,15.593H12.655c-1.051,0-1.904-0.853-1.904-1.904V5.005c0-2.76,2.245-5.005,5.005-5.005H35.93
				c2.76,0,5.005,2.245,5.005,5.005v8.683C40.935,14.74,40.083,15.593,39.031,15.593z M14.559,11.785h22.568V5.005
				c0-0.66-0.537-1.197-1.197-1.197H15.756c-0.66,0-1.197,0.537-1.197,1.197V11.785z"/>
		</g>
	</g>
	<g>
		<g>
			<polygon fill="#666766" points="36.267,13.689 15.419,13.689 13.738,29.897 37.994,29.897 			"/>
		</g>
		<g>
			<path d="M37.994,31.801H13.739c-0.539,0-1.053-0.228-1.414-0.629c-0.361-0.401-0.536-0.935-0.48-1.472l1.68-16.208
				c0.1-0.97,0.919-1.708,1.894-1.708h20.849c0.973,0,1.791,0.734,1.894,1.702l1.726,16.208c0.057,0.537-0.116,1.073-0.478,1.475
				C39.048,31.572,38.534,31.801,37.994,31.801z M15.851,27.993h20.025l-1.321-12.4H17.136L15.851,27.993z"/>
		</g>
	</g>
	<g>
		<g>
			<path d="M14.69,42.252h-4.353c-1.051,0-1.904-0.853-1.904-1.904c0-1.051,0.853-1.904,1.904-1.904h4.353
				c1.051,0,1.904,0.853,1.904,1.904C16.594,41.399,15.741,42.252,14.69,42.252z"/>
		</g>
	</g>
	<g>
		<g>
			<path d="M41.349,42.252h-4.443c-1.051,0-1.904-0.853-1.904-1.904c0-1.051,0.853-1.904,1.904-1.904h4.443
				c1.051,0,1.904,0.853,1.904,1.904C43.253,41.399,42.4,42.252,41.349,42.252z"/>
		</g>
	</g>
	<g>
		<g>
			<path fill="#FFFFFF" d="M37.971,72.542c-0.514,0-1.025-0.206-1.401-0.614c-2.795-3.032-6.604-4.702-10.728-4.702
				s-7.933,1.67-10.728,4.702c-0.711,0.774-1.917,0.822-2.691,0.109c-0.773-0.712-0.822-1.917-0.109-2.691
				c3.473-3.768,8.403-5.929,13.528-5.929s10.055,2.161,13.528,5.929c0.713,0.774,0.664,1.978-0.109,2.691
				C38.895,72.375,38.432,72.542,37.971,72.542z"/>
		</g>
	</g>
	<g>
		<g>
			<path fill="#FFFFFF" d="M31.193,76.038h-10.7c-1.051,0-1.904-0.853-1.904-1.904s0.853-1.904,1.904-1.904h10.7
				c1.051,0,1.904,0.853,1.904,1.904S32.244,76.038,31.193,76.038z"/>
		</g>
	</g>
	<g>
		<g>
			<path fill="#FFFFFF" d="M31.193,82.022h-10.7c-1.051,0-1.904-0.853-1.904-1.904s0.853-1.904,1.904-1.904h10.7
				c1.051,0,1.904,0.853,1.904,1.904S32.244,82.022,31.193,82.022z"/>
		</g>
	</g>
	<g>
		<g>
			<path fill="#FFFFFF" d="M28.791,23.697h-5.849c-1.051,0-1.904-0.853-1.904-1.904c0-1.051,0.853-1.904,1.904-1.904h5.849
				c1.051,0,1.904,0.853,1.904,1.904C30.695,22.844,29.842,23.697,28.791,23.697z"/>
		</g>
	</g>
</g>
</svg>
