<?xml version="1.0" encoding="iso-8859-1"?>
<!-- Generator: Adobe Illustrator 19.0.0, SVG Export Plug-In . SVG Version: 6.00 Build 0)  -->
<svg version="1.1" id="Layer_1" xmlns="http://www.w3.org/2000/svg" xmlns:xlink="http://www.w3.org/1999/xlink" x="0px" y="0px"
	 viewBox="0 0 512 512" style="enable-background:new 0 0 512 512;" xml:space="preserve">
<path style="fill:#3C1146;" d="M316.545,437.491H195.454c-16.054,0-30.054-11.413-33.291-27.138l-20.871-101.446
	c-1.557-7.57,3.316-14.967,10.884-16.526c7.561-1.553,14.966,3.315,16.526,10.884l20.871,101.446
	c0.571,2.777,3.045,4.795,5.881,4.795h121.092c2.836,0,5.31-2.016,5.881-4.795l3.158-15.346c1.557-7.571,8.956-12.439,16.526-10.884
	c7.568,1.557,12.443,8.956,10.884,16.526l-3.158,15.346C346.601,426.078,332.599,437.491,316.545,437.491z"/>
<path style="fill:#D4A8B4;" d="M329.98,234.32c-5.833,0-11.433,0.986-16.659,2.779c-5.576-26.545-29.118-46.479-57.321-46.479
	s-51.746,19.934-57.321,46.479c-5.226-1.792-10.825-2.779-16.659-2.779c-28.35,0-51.333,22.983-51.333,51.333
	s22.983,51.333,51.333,51.333h33.779c10.492,9.908,24.631,15.994,40.201,15.994s29.71-6.085,40.201-15.994h33.779
	c28.35,0,51.333-22.983,51.333-51.333S358.33,234.32,329.98,234.32z"/>
<g>
	<path style="fill:#3C1146;" d="M256,366.971c-16.645,0-32.567-5.64-45.43-15.994h-28.55c-36.02,0-65.325-29.304-65.325-65.325
		S146,220.328,182.02,220.328c2.421,0,4.833,0.134,7.227,0.4c11.233-26.211,37.415-44.101,66.753-44.101
		s55.521,17.888,66.753,44.101c2.394-0.266,4.806-0.4,7.227-0.4c36.02,0,65.325,29.304,65.325,65.325S366,350.977,329.98,350.977
		h-28.55C288.567,361.331,272.645,366.971,256,366.971z M182.02,248.312c-20.59,0-37.341,16.752-37.341,37.341
		s16.752,37.341,37.341,37.341h33.779c3.572,0,7.01,1.367,9.605,3.818c8.314,7.851,19.181,12.174,30.596,12.174
		c11.414,0,22.282-4.323,30.596-12.174c2.595-2.453,6.035-3.818,9.605-3.818h33.779c20.59,0,37.341-16.752,37.341-37.341
		s-16.752-37.341-37.341-37.341c-4.126,0-8.205,0.68-12.12,2.023c-3.795,1.298-7.963,0.909-11.451-1.072s-5.956-5.363-6.78-9.289
		c-4.305-20.491-22.653-35.363-43.63-35.363s-39.324,14.873-43.63,35.363c-0.824,3.926-3.294,7.308-6.78,9.289
		c-3.487,1.984-7.656,2.37-11.451,1.072C190.225,248.992,186.146,248.312,182.02,248.312z"/>
	<path style="fill:#3C1146;" d="M405.131,512H106.869c-37.425,0-67.873-30.447-67.873-67.873V67.873
		C38.996,30.447,69.444,0,106.869,0h298.262c37.425,0,67.873,30.447,67.873,67.873v189.934c0,7.726-6.266,13.992-13.992,13.992
		s-13.992-6.266-13.992-13.992V67.873c0-21.995-17.894-39.889-39.889-39.889H106.869c-21.995,0-39.889,17.894-39.889,39.889v376.255
		c0,21.995,17.894,39.889,39.889,39.889h298.262c21.995,0,39.889-17.894,39.889-39.889V333.359c0-7.726,6.266-13.992,13.992-13.992
		s13.992,6.266,13.992,13.992v110.768C473.004,481.553,442.556,512,405.131,512z"/>
</g>
<path style="fill:#D4A8B4;" d="M168.647,13.992h174.708v66.647c0,16.394-13.291,29.685-29.685,29.685H198.333
	c-16.394,0-29.685-13.291-29.685-29.685V13.992H168.647z"/>
<path style="fill:#3C1146;" d="M313.668,124.317H198.332c-24.084,0-43.678-19.594-43.678-43.678V13.992
	C154.654,6.266,160.919,0,168.645,0h174.708c7.726,0,13.992,6.266,13.992,13.992v66.647
	C357.345,104.723,337.752,124.317,313.668,124.317z M182.637,27.983v52.655c0,8.654,7.041,15.695,15.695,15.695h115.337
	c8.654,0,15.695-7.041,15.695-15.695V27.983H182.637z"/>
<g>
</g>
<g>
</g>
<g>
</g>
<g>
</g>
<g>
</g>
<g>
</g>
<g>
</g>
<g>
</g>
<g>
</g>
<g>
</g>
<g>
</g>
<g>
</g>
<g>
</g>
<g>
</g>
<g>
</g>
</svg>
