<?xml version="1.0" encoding="utf-8"?>

<!DOCTYPE svg PUBLIC "-//W3C//DTD SVG 1.1//EN" "http://www.w3.org/Graphics/SVG/1.1/DTD/svg11.dtd">
<svg version="1.1" id="Food_Icons" xmlns="http://www.w3.org/2000/svg" xmlns:xlink="http://www.w3.org/1999/xlink" x="0px" y="0px"
	 width="110.828px" height="61.669px" viewBox="0 0 110.828 61.669" enable-background="new 0 0 110.828 61.669"
	 xml:space="preserve">
<g id="_x32_">
	<g>
		<g>
			<path fill="#FFDB92" d="M42.194,15.914c-0.496,0-0.992-0.189-1.371-0.568c-0.757-0.757-0.757-1.985,0-2.741
				c0.195-0.195,0.376-0.4,0.541-0.612c0.659-0.845,1.878-0.995,2.721-0.338c0.844,0.658,0.996,1.876,0.338,2.721
				c-0.263,0.337-0.552,0.664-0.858,0.97C43.186,15.724,42.69,15.914,42.194,15.914z"/>
		</g>
	</g>
	<g>
		<g>
			<path fill="#B3D08B" d="M31.536,29.54c1.897,3.774,0.375,8.37-3.398,10.267c-3.774,1.897-8.37,0.375-10.267-3.398
				s-2.688-12.972,1.086-14.869S29.639,25.767,31.536,29.54z"/>
		</g>
		<g>
			<path d="M24.719,42.559c-3.511,0-6.899-1.934-8.58-5.28c-2.021-4.022-3.382-14.793,1.947-17.472
				c5.331-2.682,13.162,4.84,15.183,8.861v0.001c1.15,2.288,1.34,4.886,0.536,7.317c-0.805,2.43-2.508,4.403-4.796,5.552
				C27.631,42.231,26.164,42.559,24.719,42.559z M20.612,23.106c-0.296,0-0.56,0.053-0.786,0.166
				c-2.201,1.107-2.033,8.667-0.224,12.266c1.415,2.813,4.855,3.95,7.664,2.536c2.813-1.413,3.951-4.852,2.538-7.665v0.001
				C28.18,27.18,23.206,23.106,20.612,23.106z"/>
		</g>
	</g>
	<g>
		<g>
			<path d="M28.139,41.746c-0.71,0-1.393-0.391-1.734-1.069l-4.59-9.133c-0.481-0.956-0.095-2.122,0.862-2.602
				c0.955-0.482,2.122-0.095,2.602,0.862l4.59,9.133c0.481,0.956,0.095,2.122-0.862,2.602C28.729,41.68,28.432,41.746,28.139,41.746
				z"/>
		</g>
	</g>
	<g>
		<g>
			<path fill="#FFE0AE" d="M55.818,28.577c-35.137,0-49.676,18.416-49.676,18.416h99.352
				C105.494,46.994,90.955,28.577,55.818,28.577z"/>
		</g>
		<g>
			<path d="M105.494,48.932H6.142c-0.743,0-1.421-0.425-1.745-1.093c-0.324-0.669-0.237-1.464,0.223-2.047
				c0.617-0.782,15.531-19.154,51.197-19.154s50.58,18.371,51.198,19.154c0.46,0.583,0.547,1.378,0.223,2.047
				C106.914,48.507,106.237,48.932,105.494,48.932z M10.862,45.055h89.913c-5.9-5.08-20.209-14.539-44.957-14.539
				C31.072,30.516,16.764,39.972,10.862,45.055z"/>
		</g>
	</g>
	<g>
		<g>
			<path fill="#EDEDED" d="M105.9,46.993l-0.766,2.872c-1.551,5.817-6.82,9.865-12.84,9.865H19.4c-5.97,0-11.207-3.981-12.804-9.732
				l-0.809-2.912L105.9,46.993z"/>
		</g>
	</g>
	<g>
		<g>
			<path fill="#FCFAFB" d="M90.179,46.993l-0.766,2.872c-1.551,5.817-6.82,9.865-12.84,9.865H35.147
				c-5.97,0-11.207-3.981-12.804-9.732l-0.809-2.912L90.179,46.993z"/>
		</g>
	</g>
	<g>
		<g>
			<path d="M92.293,61.669H19.4c-6.815,0-12.848-4.586-14.672-11.152l-0.809-2.912c-0.162-0.584-0.042-1.209,0.324-1.692
				c0.366-0.482,0.936-0.765,1.542-0.766l100.114-0.092h0.002c0.602,0,1.17,0.28,1.537,0.757c0.367,0.478,0.492,1.099,0.336,1.682
				l-0.766,2.872C105.233,57.021,99.182,61.669,92.293,61.669z M8.336,49.022l0.127,0.457c1.36,4.894,5.857,8.312,10.937,8.312
				h72.894c5.135,0,9.644-3.465,10.968-8.426l0.115-0.432L8.336,49.022z"/>
		</g>
	</g>
	<g>
		<g>
			<path d="M108.889,48.932H1.939C0.868,48.932,0,48.064,0,46.993c0-1.071,0.868-1.939,1.939-1.939h106.951
				c1.071,0,1.939,0.868,1.939,1.939C110.828,48.064,109.96,48.932,108.889,48.932z"/>
		</g>
	</g>
	<g>
		<g>
			<path fill="#B9DA95" d="M71.799,35.724c-0.552,3.815,2.093,7.355,5.908,7.906c3.815,0.552,7.355-2.093,7.906-5.908
				s-1.42-12.006-5.235-12.558C76.563,24.612,72.35,31.909,71.799,35.724z"/>
		</g>
		<g>
			<path d="M78.711,45.642c-0.423,0-0.851-0.03-1.282-0.093c-2.357-0.341-4.441-1.58-5.867-3.488
				c-1.426-1.908-2.023-4.257-1.682-6.615c0.332-2.291,1.669-5.341,3.408-7.769c2.302-3.213,4.92-4.786,7.367-4.432
				c5.492,0.794,7.472,10.638,6.876,14.755C86.89,42.435,83.068,45.642,78.711,45.642z M79.971,27.074
				c-0.711,0-2.007,0.736-3.53,2.862c-1.362,1.901-2.482,4.396-2.724,6.066v0.001c-0.193,1.332,0.144,2.66,0.95,3.738
				c0.806,1.078,1.984,1.779,3.316,1.971c2.753,0.398,5.313-1.516,5.711-4.267c0.505-3.49-1.489-10.057-3.594-10.362
				C80.06,27.077,80.017,27.074,79.971,27.074z"/>
		</g>
	</g>
	<g>
		<g>
			<path d="M77.709,45.569c-0.092,0-0.186-0.006-0.28-0.02c-1.06-0.153-1.795-1.137-1.641-2.196l1.336-9.233
				c0.153-1.06,1.139-1.789,2.196-1.641c1.06,0.153,1.795,1.137,1.641,2.196l-1.336,9.233
				C79.486,44.873,78.657,45.569,77.709,45.569z"/>
		</g>
	</g>
	<g>
		<g>
			<path fill="#FFDB92" d="M55.414,37.785c-33.44,0-49.272,9.208-49.272,9.208h98.544C104.686,46.994,88.854,37.785,55.414,37.785z"
				/>
		</g>
		<g>
			<path d="M104.686,48.932H6.142c-0.876,0-1.644-0.588-1.872-1.434c-0.228-0.846,0.14-1.74,0.897-2.181
				c0.665-0.387,16.67-9.471,50.247-9.471s49.582,9.084,50.247,9.471c0.757,0.44,1.125,1.334,0.897,2.181
				C106.33,48.344,105.563,48.932,104.686,48.932z M16.166,45.055h78.497c-7.854-2.482-20.87-5.33-39.249-5.33
				C37.038,39.724,24.02,42.572,16.166,45.055z"/>
		</g>
	</g>
	<g>
		<g>
			<path fill="#F47A59" d="M85.983,39.61c-0.496,0-0.992-0.189-1.371-0.568l-1.71-1.71c-0.757-0.757-0.757-1.985,0-2.741
				c0.757-0.757,1.984-0.757,2.741,0l1.71,1.71c0.757,0.757,0.757,1.985,0,2.741C86.975,39.42,86.479,39.61,85.983,39.61z"/>
		</g>
	</g>
	<g>
		<g>
			<path fill="#F47A59" d="M25.377,39.61c-0.496,0-0.992-0.189-1.371-0.568c-0.757-0.757-0.757-1.985,0-2.741l1.71-1.71
				c0.757-0.757,1.984-0.757,2.741,0c0.757,0.757,0.757,1.985,0,2.741l-1.71,1.71C26.369,39.42,25.873,39.61,25.377,39.61z"/>
		</g>
	</g>
	<g>
		<g>
			<path fill="#F47A59" d="M56.537,34.353c-0.496,0-0.992-0.189-1.371-0.568l-1.71-1.71c-0.757-0.757-0.757-1.985,0-2.741
				c0.757-0.757,1.984-0.757,2.741,0l1.71,1.71c0.757,0.757,0.757,1.985,0,2.741C57.529,34.163,57.033,34.353,56.537,34.353z"/>
		</g>
	</g>
	<g>
		<g>
			<path fill="#F47A59" d="M68.061,43.352c-0.496,0-0.992-0.189-1.371-0.568c-0.757-0.757-0.757-1.985,0-2.741l1.71-1.71
				c0.757-0.757,1.984-0.757,2.741,0c0.757,0.757,0.757,1.985,0,2.741l-1.71,1.71C69.053,43.163,68.557,43.352,68.061,43.352z"/>
		</g>
	</g>
	<g>
		<g>
			<path fill="#F47A59" d="M43.299,43.352c-0.496,0-0.992-0.189-1.371-0.567l-1.71-1.71c-0.757-0.757-0.757-1.985-0.001-2.742
				c0.757-0.757,1.985-0.757,2.742-0.001l1.71,1.71c0.757,0.757,0.757,1.985,0.001,2.742C44.292,43.163,43.795,43.352,43.299,43.352
				z"/>
		</g>
	</g>
	<g>
		<g>
			<path d="M77.42,13.5H33.408c-1.071,0-1.939-0.868-1.939-1.939s0.868-1.939,1.939-1.939H77.42c1.071,0,1.939,0.868,1.939,1.939
				S78.49,13.5,77.42,13.5z"/>
		</g>
	</g>
	<g>
		<g>
			<path d="M43.417,19.662H33.408c-1.071,0-1.939-0.868-1.939-1.939c0-1.071,0.868-1.939,1.939-1.939h10.009
				c0.834,0,1.511-0.678,1.511-1.512V8.85c0-0.834-0.678-1.512-1.511-1.512H33.408c-1.071,0-1.939-0.868-1.939-1.939
				s0.868-1.939,1.939-1.939h10.009c2.971,0,5.389,2.417,5.389,5.389v5.423C48.806,17.245,46.389,19.662,43.417,19.662z"/>
		</g>
	</g>
	<g>
		<g>
			<path fill="#FFDB92" d="M44.691,9.895c-1.071,0-1.939-0.868-1.939-1.938c-0.001-1.756-0.684-3.406-1.925-4.647
				c-0.757-0.757-0.757-1.985-0.001-2.742c0.757-0.757,1.985-0.757,2.742-0.001c1.973,1.973,3.061,4.597,3.061,7.388
				C46.629,9.026,45.762,9.895,44.691,9.895L44.691,9.895z"/>
		</g>
	</g>
	<g>
		<g>
			<path fill="#FFDB92" d="M37.684,23.123c-0.496,0-0.992-0.189-1.371-0.568c-1.974-1.973-3.061-4.597-3.061-7.388
				c0-1.071,0.868-1.939,1.939-1.939c1.071,0,1.939,0.868,1.939,1.939c0,1.755,0.684,3.405,1.925,4.647
				c0.757,0.757,0.757,1.985,0,2.741C38.676,22.933,38.18,23.123,37.684,23.123z"/>
		</g>
	</g>
	<g>
		<g>
			<path fill="#FFDB92" d="M36.986,11.878c-0.418,0-0.838-0.134-1.192-0.411C34.95,10.808,34.8,9.59,35.459,8.746
				c0.265-0.339,0.553-0.665,0.857-0.969c0.757-0.757,1.984-0.757,2.741,0c0.757,0.757,0.757,1.985,0,2.741
				c-0.196,0.196-0.376,0.401-0.543,0.614C38.133,11.622,37.562,11.878,36.986,11.878z"/>
		</g>
	</g>
</g>
</svg>
